<?xml version="1.0" encoding="UTF-8" standalone="no"?>
<svg
   xmlns:dc="http://purl.org/dc/elements/1.1/"
   xmlns:cc="http://creativecommons.org/ns#"
   xmlns:rdf="http://www.w3.org/1999/02/22-rdf-syntax-ns#"
   xmlns:svg="http://www.w3.org/2000/svg"
   xmlns="http://www.w3.org/2000/svg"
   xmlns:sodipodi="http://sodipodi.sourceforge.net/DTD/sodipodi-0.dtd"
   xmlns:inkscape="http://www.inkscape.org/namespaces/inkscape"
   version="1.1"
   id="svg2"
   xml:space="preserve"
   width="1120.1893"
   height="544"
   viewBox="0 0 1120.1893 544"
   sodipodi:docname="zidar.ai"><metadata
     id="metadata8"><rdf:RDF><cc:Work
         rdf:about=""><dc:format>image/svg+xml</dc:format><dc:type
           rdf:resource="http://purl.org/dc/dcmitype/StillImage" /></cc:Work></rdf:RDF></metadata><defs
     id="defs6"><clipPath
       clipPathUnits="userSpaceOnUse"
       id="clipPath26"><path
         d="M 0,408 H 840.142 V 0 H 0 Z"
         id="path24" /></clipPath></defs><sodipodi:namedview
     pagecolor="#ffffff"
     bordercolor="#666666"
     borderopacity="1"
     objecttolerance="10"
     gridtolerance="10"
     guidetolerance="10"
     inkscape:pageopacity="0"
     inkscape:pageshadow="2"
     inkscape:window-width="640"
     inkscape:window-height="480"
     id="namedview4" /><g
     id="g10"
     inkscape:groupmode="layer"
     inkscape:label="zidar"
     transform="matrix(1.3333333,0,0,-1.3333333,0,544)"><g
       id="g12"
       transform="translate(544.142,136)"><path
         d="M 0,0 V -53 H -227 V 0 h -24 V -77 H 24 V 0 Z"
         style="fill:#000000;fill-opacity:1;fill-rule:nonzero;stroke:none"
         id="path14" /></g><g
       id="g16"
       transform="translate(317.142,257)"><path
         d="M 0,0 V 53 H 227 V 0 h 24 V 77 H -24 V 0 Z"
         style="fill:#000000;fill-opacity:1;fill-rule:nonzero;stroke:none"
         id="path18" /></g><g
       id="g20"><g
         id="g22"
         clip-path="url(#clipPath26)"><g
           id="g28"
           transform="translate(164.4814,197.6245)"><path
             d="m 0,0 -10.14,-23.471 h -3.988 L -24.269,0 -35.89,27.8 h -0.341 v -66.766 h -5.014 v 79.299 h 5.241 c 2.126,-5.013 4.254,-10.008 6.38,-14.982 2.126,-4.976 4.291,-9.97 6.495,-14.983 l 10.938,-25.977 h 0.228 l 11.165,26.091 12.875,29.851 h 5.013 v -79.299 h -5.013 v 67.222 h -0.114 z"
             style="fill:#000000;fill-opacity:1;fill-rule:nonzero;stroke:none"
             id="path30" /></g><path
           d="m 196.952,237.958 h 5.013 v -79.299 h -5.013 z"
           style="fill:#000000;fill-opacity:1;fill-rule:nonzero;stroke:none"
           id="path32" /><g
           id="g34"
           transform="translate(223.1552,233.4004)"><path
             d="m 0,0 v -33.611 h 16.69 c 5.487,0 9.736,1.424 12.747,4.273 3.01,2.848 4.516,7.195 4.516,13.045 0,5.469 -1.487,9.551 -4.459,12.248 C 26.521,-1.35 22.292,0 16.806,0 Z m 17.888,4.558 c 7.139,0 12.476,-1.843 16.008,-5.526 3.532,-3.686 5.298,-8.793 5.298,-15.325 0,-5.469 -1.31,-10.065 -3.931,-13.786 -2.62,-3.722 -6.551,-6.192 -11.792,-7.406 2.581,-6.001 5.241,-12.21 7.975,-18.628 2.735,-6.42 5.43,-12.629 8.09,-18.629 h -5.925 c -2.592,6.153 -5.164,12.266 -7.717,18.344 -2.553,6.076 -5.088,12.191 -7.602,18.343 -1.068,-0.076 -2.154,-0.113 -3.259,-0.113 H 11.661 0 v -36.574 h -5.013 v 79.3 z"
             style="fill:#000000;fill-opacity:1;fill-rule:nonzero;stroke:none"
             id="path36" /></g><g
           id="g38"
           transform="translate(302.5683,177.9136)"><path
             d="m 0,0 c 0,-3.418 -0.532,-6.362 -1.595,-8.83 -1.065,-2.469 -2.526,-4.54 -4.386,-6.209 -1.863,-1.672 -4.065,-2.906 -6.609,-3.703 -2.545,-0.798 -5.298,-1.196 -8.26,-1.196 -2.355,0 -4.805,0.398 -7.349,1.196 -2.546,0.797 -4.691,2.031 -6.437,3.703 l 3.418,3.76 c 3.114,-2.583 6.494,-3.874 10.14,-3.874 2.126,0 4.159,0.245 6.096,0.74 1.937,0.494 3.626,1.368 5.07,2.621 1.442,1.253 2.581,2.923 3.418,5.013 0.835,2.088 1.253,4.689 1.253,7.804 V 60.044 H 0 Z"
             style="fill:#000000;fill-opacity:1;fill-rule:nonzero;stroke:none"
             id="path40" /></g><g
           id="g42"
           transform="translate(343.2426,211.8203)"><path
             d="M 0,0 -5.355,19.416 H -5.697 C -9.952,4.11 -14.509,-11.878 -19.369,-28.552 H 8.317 Z m 15.267,-53.162 c -0.304,1.14 -0.703,2.621 -1.196,4.444 -0.495,1.823 -1.026,3.683 -1.595,5.583 -0.57,1.897 -1.122,3.76 -1.652,5.583 -0.532,1.823 -0.951,3.303 -1.254,4.443 h -30.078 l -5.697,-20.053 h -5.241 l 23.129,79.3 h 5.696 l 23.243,-79.3 z"
             style="fill:#000000;fill-opacity:1;fill-rule:nonzero;stroke:none"
             id="path44" /></g><g
           id="g46"
           transform="translate(377.6498,158.6587)"><path
             d="m 0,0 h -5.013 v 79.299 h 4.899 L 22.856,37.713 37.255,11.394 h 0.344 v 67.905 h 5.013 V 0 H 37.471 C 33.663,6.987 29.854,13.957 26.047,20.907 22.237,27.857 18.392,34.864 14.509,41.928 12.07,46.258 9.672,50.605 7.312,54.974 4.951,59.341 2.551,63.728 0.114,68.133 H 0 Z"
             style="fill:#000000;fill-opacity:1;fill-rule:nonzero;stroke:none"
             id="path48" /></g><g
           id="g50"
           transform="translate(460.3666,211.8203)"><path
             d="M 0,0 -5.355,19.416 H -5.697 C -9.952,4.11 -14.509,-11.878 -19.369,-28.552 H 8.317 Z m 15.267,-53.162 c -0.304,1.14 -0.703,2.621 -1.196,4.444 -0.495,1.823 -1.026,3.683 -1.595,5.583 -0.57,1.897 -1.122,3.76 -1.652,5.583 -0.532,1.823 -0.951,3.303 -1.254,4.443 h -30.078 l -5.697,-20.053 h -5.241 l 23.129,79.3 h 5.696 l 23.243,-79.3 z"
             style="fill:#000000;fill-opacity:1;fill-rule:nonzero;stroke:none"
             id="path52" /></g><g
           id="g54"
           transform="translate(503.3178,158.6587)"><path
             d="M 0,0 V 8.787 L 30.876,70.754 H 1.253 v 8.545 H 41.131 V 71.096 L 10.254,9.001 H 41.017 V 0 Z"
             style="fill:#000000;fill-opacity:1;fill-rule:nonzero;stroke:none"
             id="path56" /></g><path
           d="m 554.816,237.958 h 9.571 v -79.299 h -9.571 z"
           style="fill:#000000;fill-opacity:1;fill-rule:nonzero;stroke:none"
           id="path58" /><g
           id="g60"
           transform="translate(616.1127,211.8667)"><path
             d="m 0,0 c 0,6.152 -1.33,10.576 -3.988,13.273 -2.659,2.696 -6.494,4.045 -11.508,4.045 h -11.735 v -61.639 h 11.735 c 5.621,0 9.608,1.499 11.964,4.5 2.353,3 3.532,7.159 3.532,12.476 z m -14.584,26.091 c 5.316,0 9.873,-0.968 13.672,-2.905 C 2.886,21.249 5.697,18.001 7.52,13.444 8.659,10.405 9.286,6.703 9.399,2.335 9.513,-2.033 9.57,-7.104 9.57,-12.875 9.57,-18.876 9.531,-24.041 9.457,-28.37 9.38,-32.7 8.773,-36.422 7.633,-39.536 c -1.064,-2.659 -2.392,-4.861 -3.987,-6.608 -1.595,-1.748 -3.418,-3.133 -5.469,-4.159 -2.051,-1.025 -4.292,-1.766 -6.722,-2.221 -2.432,-0.456 -4.939,-0.684 -7.52,-0.684 h -20.736 v 79.299 z"
             style="fill:#000000;fill-opacity:1;fill-rule:nonzero;stroke:none"
             id="path62" /></g><g
           id="g64"
           transform="translate(664.3066,205.7139)"><path
             d="M 0,0 -4.443,17.546 H -4.899 L -9.343,0.114 -15.153,-20.508 H 5.811 Z m 12.989,-47.055 -5.013,18.002 h -25.294 l -4.899,-18.002 h -9.685 l 23.015,79.299 h 8.545 l 23.129,-79.299 z"
             style="fill:#000000;fill-opacity:1;fill-rule:nonzero;stroke:none"
             id="path66" /></g><g
           id="g68"
           transform="translate(731.5283,215.9131)"><path
             d="m 0,0 c 0,4.422 -1.045,7.778 -3.133,10.067 -2.09,2.288 -5.375,3.433 -9.856,3.433 h -13.672 v -27.573 h 13.9 c 4.253,0 7.443,1.259 9.571,3.776 C -1.064,-7.78 0,-4.347 0,0 m -0.114,-57.254 -13.217,34.864 h -13.33 v -34.864 h -9.457 v 79.299 h 24.838 c 6.455,0 11.545,-1.92 15.268,-5.754 C 7.708,12.455 9.57,7.005 9.57,-0.059 9.57,-5.072 8.449,-9.384 6.209,-12.99 3.968,-16.599 0.53,-19.276 -4.102,-21.023 l 14.356,-36.231 z"
             style="fill:#000000;fill-opacity:1;fill-rule:nonzero;stroke:none"
             id="path70" /></g></g></g></g></svg>
