<?xml version="1.0" encoding="UTF-8"?>
<svg width="826px" height="368px" viewBox="0 0 826 368" version="1.1" xmlns="http://www.w3.org/2000/svg" xmlns:xlink="http://www.w3.org/1999/xlink">
    <title>zidar</title>
    <g id="Page-1" stroke="none" stroke-width="1" fill="none" fill-rule="evenodd">
        <g id="zidar" transform="translate(0.315196, 0.666678)" fill="#000000" fill-rule="nonzero">
            <g id="g10" transform="translate(412.363923, 183.333329) scale(-1, 1) rotate(-180.000000) translate(-412.363923, -183.333329) translate(0.000000, 0.000000)">
                <g id="g12" transform="translate(226.540794, -0.000000)">
                    <polygon id="path14" points="334.666658 102.666664 334.666658 31.9999992 31.9999992 31.9999992 31.9999992 102.666664 0 102.666664 0 0 366.666657 0 366.666657 102.666664"></polygon>
                </g>
                <g id="g16" transform="translate(226.540794, 263.999993)">
                    <polygon id="path18" points="31.9999992 0 31.9999992 70.6666649 334.666658 70.6666649 334.666658 0 366.666658 0 366.666658 102.666664 0 102.666664 0 0"></polygon>
                </g>
                <g id="g20" transform="translate(-0.000000, 131.967463)">
                    <g id="g22" transform="translate(-0.000000, 0.000000)">
                        <g id="g28" transform="translate(0.000000, 0.910533)">
                            <path d="M54.993332,51.9546654 L41.4733323,20.6599995 L36.1559991,20.6599995 L22.6346661,51.9546654 L7.13999982,89.0213311 L6.68533317,89.0213311 L6.68533317,0 L0,0 L0,105.731997 L6.98799983,105.731997 C9.82266642,99.0479975 12.6599997,92.3879977 15.4946663,85.7559979 C18.3293329,79.1213314 21.2159995,72.4626649 24.1546661,65.778665 L38.7386657,31.1426659 L39.0426657,31.1426659 L53.929332,65.930665 L71.0959982,105.731997 L77.7799981,105.731997 L77.7799981,0 L71.0959982,0 L71.0959982,89.6293311 L70.9439982,89.6293311 L54.993332,51.9546654 Z" id="path30"></path>
                        </g>
                        <polygon id="path32" points="98.2874642 106.643197 104.971464 106.643197 104.971464 0.911199977 98.2874642 0.911199977"></polygon>
                        <g id="g34" transform="translate(126.541064, 0.910400)">
                            <path d="M6.68399983,99.6559975 L6.68399983,54.841332 L28.9373326,54.841332 C36.2533324,54.841332 41.9186656,56.7399986 45.9333322,60.5386652 C49.9466654,64.3359984 51.9546654,70.1319982 51.9546654,77.9319981 C51.9546654,85.2239979 49.9719988,90.6666644 46.0093322,94.2626643 C42.0453323,97.8559976 36.4066658,99.6559975 29.0919993,99.6559975 L6.68399983,99.6559975 Z M30.5346659,105.733331 C40.0533323,105.733331 47.1693322,103.275997 51.8786654,98.3653309 C56.5879986,93.4506643 58.9426652,86.6413312 58.9426652,77.9319981 C58.9426652,70.6399982 57.1959986,64.5119984 53.701332,59.5506652 C50.2079987,54.5879986 44.9666655,51.2946654 37.9786657,49.6759988 C41.419999,41.6746656 44.9666655,33.3959992 48.6119988,24.838666 C52.2586654,16.2786663 55.8519986,8 59.3986652,0 L51.4986654,0 C48.0426655,8.20399979 44.6133322,16.3546663 41.2093323,24.4586661 C37.8053324,32.5599992 34.4253325,40.7133323 31.0733326,48.9159988 C29.6493326,48.8146654 28.2013326,48.7653321 26.7279993,48.7653321 L22.2319994,48.7653321 L6.68399983,48.7653321 L6.68399983,0 L2.36847573e-15,0 L2.36847573e-15,105.733331 L30.5346659,105.733331 Z" id="path36"></path>
                        </g>
                        <g id="g38" transform="translate(192.927862, 0.000000)">
                            <path d="M46.1813322,26.5839993 C46.1813322,22.0266661 45.4719989,18.1013329 44.0546656,14.8106663 C42.6346656,11.5186664 40.6866656,8.75733311 38.2066657,6.53199984 C35.7226658,4.30266656 32.7866658,2.65733327 29.3946659,1.59466663 C26.0013327,0.530666653 22.3306661,0 18.3813329,0 C15.241333,0 11.9746664,0.530666653 8.58266645,1.59466663 C5.18799987,2.65733327 2.32799994,4.30266656 0,6.53199984 L4.55733322,11.545333 C8.70933312,8.10133313 13.2159997,6.37999984 18.0773329,6.37999984 C20.9119995,6.37999984 23.6226661,6.7066665 26.2053327,7.36666648 C28.7879993,8.02533313 31.0399992,9.19066644 32.9653325,10.8613331 C34.8879991,12.5319997 36.4066658,14.7586663 37.5226657,17.5453329 C38.635999,20.3293328 39.1933324,23.7973327 39.1933324,27.950666 L39.1933324,106.642664 L46.1813322,106.642664 L46.1813322,26.5839993 Z" id="path40"></path>
                        </g>
                        <g id="g42" transform="translate(251.413594, 0.910267)">
                            <path d="M41.927999,70.8826649 L34.7879991,96.7706642 L34.3319991,96.7706642 C28.658666,76.3626648 22.5826661,55.045332 16.1026663,32.8133325 L53.017332,32.8133325 L41.927999,70.8826649 Z M62.2839984,0 C61.8786651,1.51999996 61.3466651,3.49466658 60.6893318,5.92533319 C60.0293318,8.35599979 59.3213319,10.8359997 58.5626652,13.369333 C57.8026652,15.8986663 57.0666652,18.3826662 56.3599986,20.8133328 C55.6506653,23.2439994 55.0919986,25.2173327 54.6879986,26.7373327 L14.5839996,26.7373327 L6.98799983,0 L0,0 L30.8386659,105.733331 L38.4333324,105.733331 L69.4239983,0 L62.2839984,0 Z" id="path44"></path>
                        </g>
                        <g id="g46" transform="translate(332.533858, 0.910800)">
                            <path d="M6.68399983,0 L-2.36847573e-15,0 L-2.36847573e-15,105.731997 L6.53199984,105.731997 L37.1586657,50.2839987 L56.3573319,15.1919996 L56.8159986,15.1919996 L56.8159986,105.731997 L63.5,105.731997 L63.5,0 L56.6453319,0 C51.5679987,9.31599977 46.4893322,18.6093329 41.4133323,27.8759993 C36.3333324,37.1426657 31.2066659,46.4853322 26.0293327,55.9039986 C22.7773328,61.6773318 19.5799995,67.4733316 16.4333329,73.2986648 C13.285333,79.1213314 10.0853331,84.9706645 6.83599983,90.8439977 L6.68399983,90.8439977 L6.68399983,0 Z" id="path48"></path>
                        </g>
                        <g id="g50" transform="translate(407.578923, 0.910267)">
                            <path d="M41.927999,70.8826649 L34.7879991,96.7706642 L34.3319991,96.7706642 C28.658666,76.3626648 22.5826661,55.045332 16.1026663,32.8133325 L53.017332,32.8133325 L41.927999,70.8826649 Z M62.2839984,0 C61.8786651,1.51999996 61.3466651,3.49466658 60.6893318,5.92533319 C60.0293318,8.35599979 59.3213319,10.8359997 58.5626652,13.369333 C57.8026652,15.8986663 57.0666652,18.3826662 56.3599986,20.8133328 C55.6506653,23.2439994 55.0919986,25.2173327 54.6879986,26.7373327 L14.5839996,26.7373327 L6.98799983,0 L0,0 L30.8386659,105.733331 L38.4333324,105.733331 L69.4239983,0 L62.2839984,0 Z" id="path52"></path>
                        </g>
                        <g id="g54" transform="translate(506.775187, 0.910800)">
                            <polygon id="path56" points="0 0 0 11.7159997 41.167999 94.3386643 1.67066662 94.3386643 1.67066662 105.731997 54.841332 105.731997 54.841332 94.7946643 13.6719997 12.001333 54.689332 12.001333 54.689332 0"></polygon>
                        </g>
                        <polygon id="path58" points="575.439452 106.643197 588.200785 106.643197 588.200785 0.911199977 575.439452 0.911199977"></polygon>
                        <g id="g60" transform="translate(608.100385, 0.910800)">
                            <path d="M49.0679988,70.9439982 C49.0679988,79.1466647 47.2946655,85.0453312 43.7506656,88.6413311 C40.2053323,92.2359977 35.0919991,94.0346643 28.406666,94.0346643 L12.7599997,94.0346643 L12.7599997,11.849333 L28.406666,11.849333 C35.9013324,11.849333 41.2173323,13.8479997 44.3586656,17.849333 C47.4959988,21.849333 49.0679988,27.394666 49.0679988,34.4839991 L49.0679988,70.9439982 Z M29.6226659,105.731997 C36.7106657,105.731997 42.7866656,104.441331 47.8519988,101.858664 C52.9159987,99.2759975 56.6639986,94.945331 59.0946652,88.8693311 C60.6133318,84.8173312 61.4493318,79.8813313 61.5999985,74.0573315 C61.7519985,68.2333316 61.8279985,61.4719985 61.8279985,53.777332 C61.8279985,45.7759989 61.7759985,38.8893324 61.6773318,33.1173325 C61.5746651,27.3439993 60.7653318,22.3813328 59.2453319,18.2293329 C57.8266652,14.6839996 56.0559986,11.7479997 53.929332,9.41866643 C51.8026654,7.08799982 49.3719988,5.2413332 46.6373322,3.87333324 C43.9026656,2.5066666 40.9146656,1.51866663 37.6746657,0.911999977 C34.4319991,0.303999992 31.0893326,0 27.6479993,0 L0,0 L0,105.731997 L29.6226659,105.731997 Z" id="path62"></path>
                        </g>
                        <g id="g64" transform="translate(678.890916, 0.911067)">
                            <path d="M42.5359989,62.7399984 L36.6119991,86.1346645 L36.0039991,86.1346645 L30.0786659,62.8919984 L22.3319994,35.3959991 L50.2839987,35.3959991 L42.5359989,62.7399984 Z M59.8546652,0 L53.1706653,24.0026661 L19.4453328,24.0026661 L12.913333,0 L0,0 L30.6866659,105.731997 L42.0799989,105.731997 L72.9186648,0 L59.8546652,0 Z" id="path66"></path>
                        </g>
                        <g id="g68" transform="translate(762.898514, 0.911333)">
                            <path d="M48.1573321,76.3386648 C48.1573321,82.2346646 46.7639988,86.7093312 43.9799989,89.7613311 C41.1933323,92.8119977 36.8133324,94.3386643 30.8386659,94.3386643 L12.609333,94.3386643 L12.609333,57.5746652 L31.1426659,57.5746652 C36.8133324,57.5746652 41.0666656,59.2533319 43.9039989,62.6093318 C46.7386655,65.9653317 48.1573321,70.5426649 48.1573321,76.3386648 M48.0053321,0 L30.3826659,46.4853322 L12.609333,46.4853322 L12.609333,0 L0,0 L0,105.731997 L33.1173325,105.731997 C41.723999,105.731997 48.5106655,103.171997 53.4746653,98.0599975 C58.4346652,92.945331 60.9173318,85.6786645 60.9173318,76.2599981 C60.9173318,69.5759983 59.4226652,63.8266651 56.4359986,59.0186652 C53.4479987,54.2066653 48.8639988,50.6373321 42.6879989,48.3079988 L61.8293318,0 L48.0053321,0 Z" id="path70"></path>
                        </g>
                    </g>
                </g>
            </g>
        </g>
    </g>
</svg>